<?xml version="1.0" standalone="no"?>
<!DOCTYPE svg PUBLIC "-//W3C//DTD SVG 20010904//EN"
 "http://www.w3.org/TR/2001/REC-SVG-20010904/DTD/svg10.dtd">
<svg version="1.0" xmlns="http://www.w3.org/2000/svg"
 width="750.000000pt" height="750.000000pt" viewBox="0 0 750.000000 750.000000"
 preserveAspectRatio="xMidYMid meet">
<metadata>
Created by potrace 1.11, written by Peter Selinger 2001-2013
</metadata>
<g transform="translate(0.000000,750.000000) scale(0.100000,-0.100000)"
fill="#000000" stroke="none">
<path d="M3670 6893 l0 -270 113 2 c61 1 115 3 118 4 4 0 6 63 6 139 l0 137
54 -1 c57 -1 196 -12 239 -19 14 -2 43 -7 65 -9 22 -3 65 -10 95 -16 30 -6 71
-13 90 -16 62 -10 258 -64 368 -100 371 -124 756 -341 1058 -599 93 -79 293
-282 375 -380 86 -104 185 -239 248 -340 24 -38 54 -86 66 -105 25 -41 163
-316 187 -375 118 -289 193 -583 228 -905 14 -125 19 -448 9 -557 -9 -95 -19
-179 -24 -213 -2 -14 -7 -45 -10 -70 -4 -25 -17 -97 -31 -160 -104 -491 -325
-949 -658 -1360 -88 -109 -335 -354 -451 -447 -116 -93 -284 -209 -405 -280
-98 -57 -330 -174 -330 -166 0 3 -6 1 -12 -5 -12 -9 -245 -100 -278 -108 -8
-2 -53 -15 -100 -29 -84 -25 -267 -67 -345 -79 -22 -4 -67 -11 -100 -16 -202
-31 -760 -35 -847 -5 -7 2 -35 6 -63 9 -27 3 -61 8 -75 11 -14 3 -61 12 -105
20 -308 59 -684 203 -970 373 -357 212 -711 527 -938 837 -20 28 -40 55 -45
60 -17 20 -112 164 -112 169 0 3 -13 24 -29 48 -42 63 -153 278 -200 389 -62
149 -142 389 -167 504 -2 11 -6 29 -8 40 -16 74 -36 177 -41 215 -4 25 -9 53
-10 62 -2 9 -6 45 -10 80 -3 35 -8 86 -11 113 -7 66 -7 393 0 470 14 152 18
186 32 270 69 420 222 835 432 1169 34 54 62 101 62 105 0 13 -199 133 -209
127 -15 -9 -130 -204 -194 -326 -114 -220 -250 -584 -283 -760 -2 -14 -7 -31
-9 -39 -24 -66 -70 -369 -81 -536 -12 -174 -6 -526 10 -612 2 -10 7 -46 11
-78 57 -492 259 -1027 555 -1470 61 -91 195 -269 241 -320 10 -11 32 -36 50
-55 512 -571 1213 -965 1949 -1096 14 -2 34 -6 45 -8 11 -3 47 -8 80 -12 33
-3 62 -8 65 -9 43 -26 827 -25 870 0 3 2 30 6 60 10 30 3 62 8 70 10 8 2 31 7
50 10 72 12 186 36 217 46 17 6 43 12 56 15 74 13 313 96 466 161 626 267
1171 729 1543 1308 100 156 231 404 279 528 11 29 24 61 29 72 11 25 62 170
89 255 20 63 75 283 86 345 8 46 23 145 30 195 3 25 8 56 10 70 11 67 18 222
19 385 0 233 -10 372 -45 580 -113 681 -438 1328 -913 1815 -161 164 -201 200
-446 394 -121 95 -444 283 -623 363 -195 86 -522 196 -652 219 -16 3 -48 9
-70 14 -22 5 -56 12 -75 15 -19 3 -60 10 -90 15 -30 5 -84 12 -120 16 -36 3
-78 8 -95 10 -16 2 -123 7 -237 10 l-208 7 0 -270z"/>
<path d="M3670 5087 l0 -1273 118 0 117 1 0 1270 0 1270 -117 3 -118 3 0
-1274z"/>
</g>
</svg>
