<?xml version="1.0" encoding="UTF-8" standalone="no"?>
<svg
   xmlns:dc="http://purl.org/dc/elements/1.1/"
   xmlns:cc="http://creativecommons.org/ns#"
   xmlns:rdf="http://www.w3.org/1999/02/22-rdf-syntax-ns#"
   xmlns:svg="http://www.w3.org/2000/svg"
   xmlns="http://www.w3.org/2000/svg"
   xmlns:sodipodi="http://sodipodi.sourceforge.net/DTD/sodipodi-0.dtd"
   xmlns:inkscape="http://www.inkscape.org/namespaces/inkscape"
   version="1.1"
   id="Layer_1"
   x="0px"
   y="0px"
   xml:space="preserve"
   height="100"
   sodipodi:docname="clock.svg"
   width="100"
   inkscape:version="0.92.1 r">
<style xmlns="http://www.w3.org/2000/svg">
  svg { fill: rgba(255, 255, 255, 0.1)}
  #seconds {
    transform-origin: 128.1px 66.5px;
    -moz-transform-origin: 128.1px 66.5px;
    animation: clock-minute 60s steps(60) infinite;
  }
  @keyframes clock-minute {
  0% { transform: rotate(0deg) }	
  100% { transform: rotate(360deg) }
}
</style>
   <metadata
     id="metadata12"><rdf:RDF><cc:Work
         rdf:about=""><dc:format>image/svg+xml</dc:format><dc:type
           rdf:resource="http://purl.org/dc/dcmitype/StillImage" /><dc:title></dc:title></cc:Work></rdf:RDF></metadata><defs
     id="defs10" /><sodipodi:namedview
     pagecolor="#ffffff"
     bordercolor="#666666"
     borderopacity="1"
     objecttolerance="10"
     gridtolerance="10"
     guidetolerance="10"
     inkscape:pageopacity="0"
     inkscape:pageshadow="2"
     inkscape:window-width="1366"
     inkscape:window-height="743"
     id="namedview8"
     showgrid="false"
     inkscape:zoom="2.6700352"
     inkscape:cx="54.100031"
     inkscape:cy="10.995472"
     inkscape:window-x="0"
     inkscape:window-y="25"
     inkscape:window-maximized="0"
     inkscape:current-layer="clock"
     inkscape:pagecheckerboard="false" /><g
     id="clock"
     transform="matrix(1.2091898,0,0,1.2106538,-103.50665,-31.961259)"
     style="image-rendering:auto"><path
       id="circle"
       class="st2"
       d="m 128.1,26.4 c -0.4,0 -0.8,0 -1.3,0 -0.5,0 -1.1,0 -1.6,0 v 3 3.4 h 2.8 v -3.4 c 20.6,0.7 37.1,17.6 37.1,38.3 0,21.2 -17.2,38.3 -38.3,38.3 -21.2,0 -38.3,-17.2 -38.3,-38.3 0,-7.9 2.4,-15.2 6.5,-21.3 l -2.5,-1.6 c -4.4,6.6 -6.9,14.4 -6.9,22.9 0,22.8 18.5,41.3 41.3,41.3 9.1,0 17.4,-2.9 24.3,-7.9 10.3,-7.5 17.1,-19.7 17.1,-33.5 -0.2,-22.3 -18,-40.6 -40.2,-41.2"
       inkscape:connector-curvature="0" /><polygon
       id="seconds"
       class="st2"
       points="128.1,66.5 128.1,36 125.2,36 125.2,66.5 " /></g></svg>
