<?xml version="1.0" encoding="utf-8"?>
<!-- Generator: Adobe Illustrator 19.0.0, SVG Export Plug-In . SVG Version: 6.00 Build 0)  -->
<svg version="1.1" id="Layer_1" xmlns="http://www.w3.org/2000/svg" xmlns:xlink="http://www.w3.org/1999/xlink" x="0px" y="0px"
	 viewBox="0 0 604.8 114.7" style="enable-background:new 0 0 604.8 114.7;" xml:space="preserve">
<style type="text/css">
	.st0{fill:#2A54A4;}
</style>
<g id="XMLID_2_">
	<path id="XMLID_16_" class="st0" d="M14.2,70.7c0-5.7,1-11.1,3-16.1c2-5,4.8-9.4,8.6-13.1c3.8-3.7,8.4-6.7,13.8-8.9
		c5.5-2.2,11.7-3.3,18.7-3.3c5.2,0,10.1,0.8,14.8,2.5c4.7,1.7,8.9,4.1,12.5,7.4c3.6,3.2,6.5,7.2,8.7,11.9c2.2,4.7,3.3,10,3.3,16
		c0,0.8,0,1.7,0,2.6c0,0.9-0.1,1.8-0.1,2.7H49v31.4c1.7,0.3,3.4,0.6,5.2,0.8c1.8,0.2,3.3,0.3,4.5,0.3c5.2,0,9.7-0.8,13.7-2.3
		s7.4-3.7,10.3-6.4c0.5-0.5,1-1,1.4-1.4c0.4-0.5,0.8-0.9,1.2-1.3c0.7-0.9,1.3-1.5,1.8-1.8c0.5-0.3,1.1-0.5,1.8-0.5
		c0.9,0,1.6,0.2,2.1,0.7c0.5,0.5,0.8,1.1,0.8,1.9c0,0.7-0.2,1.4-0.5,2.1c-0.3,0.6-1,1.5-2.1,2.6c-3.5,3.6-7.9,6.5-13.2,8.6
		c-5.3,2.1-11.5,3.2-18.5,3.2c-5.9,0-11.4-1-16.7-2.9c-5.2-1.9-9.9-4.6-13.8-8.1c-4-3.5-7.1-7.7-9.4-12.5
		C15.3,82,14.2,76.6,14.2,70.7z M69.3,67.1v-31c-1.5-0.4-3.3-0.8-5.3-1c-2-0.2-3.9-0.4-5.5-0.4c-1.5,0-3.1,0.1-4.9,0.2
		c-1.8,0.1-3.3,0.3-4.5,0.6v31.6H69.3z"/>
	<path id="XMLID_19_" class="st0" d="M116.1,5.3h31.5V109h-31.5V5.3z"/>
	<path id="XMLID_21_" class="st0" d="M171.6,36.1h-1.2c-0.8,0-1.6,0-2.2,0c-0.6,0-1.2,0.1-1.8,0.1c-0.8,0-1.4,0.1-1.8,0.1
		c-0.4,0-0.8,0-1.2,0c-1.3,0-2.4-0.3-3.1-0.8c-0.8-0.5-1.2-1.3-1.2-2.3c0-0.9,0.4-1.6,1.2-2.1c0.8-0.5,1.7-0.7,2.8-0.7
		c0.7,0,1.3,0,1.8,0c0.5,0,1.2,0.1,1.9,0.1c0.5,0,1.2,0.1,2,0.1c0.8,0,1.8,0,3,0c0.5-4.6,1.8-8.6,3.9-11.9s4.7-6.2,7.9-8.3
		c3.2-2.2,6.9-3.8,11.1-4.9c4.2-1,8.7-1.6,13.5-1.6c3.3,0,6.3,0.3,8.9,0.8c2.6,0.5,4.8,1.2,6.6,2.1c1.8,0.9,3.1,1.8,4.1,2.8
		c1,1,1.4,2,1.4,2.9c0,1-0.3,1.8-0.8,2.3c-0.6,0.6-1.4,0.9-2.5,0.9c-0.6,0-1.3-0.1-1.9-0.4c-0.6-0.3-1.3-0.7-1.9-1.1
		c-0.6-0.4-1.3-0.9-1.9-1.4c-0.7-0.5-1.4-0.9-2.1-1.3c-0.8-0.4-1.6-0.8-2.3-1.1s-1.5-0.5-2.3-0.7c-0.8-0.2-1.6-0.3-2.5-0.3
		c-0.9,0-1.9-0.1-3.1-0.1c-0.7,0-1.5,0-2.3,0.1c-0.8,0.1-1.7,0.2-2.5,0.3v20.9h6.4c1.3,0,2.5,0,3.6,0c1.1,0,2-0.1,2.6-0.1
		c0.7,0,1.3-0.1,1.9-0.1c0.6,0,1.2,0,1.8,0c1.1,0,2,0.2,2.8,0.7c0.8,0.5,1.2,1.2,1.2,2.1c0,1-0.4,1.7-1.2,2.3
		c-0.8,0.5-1.8,0.8-3,0.8c-0.4,0-0.8,0-1.3,0c-0.5,0-1.1-0.1-1.8-0.1c-0.6,0-1.3-0.1-2.2-0.1c-0.9,0-1.7,0-2.6,0h-8.1V109h-31.5
		L171.6,36.1z"/>
	<path id="XMLID_23_" class="st0" d="M224.1,102.8c0.6-2.1,1.5-4.4,2.6-7c1.1-2.5,2.5-5.3,4.2-8.3c1.7-3.1,3.8-6.5,6.2-10.3
		c2.4-3.8,5.3-8,8.6-12.6c3.3-4.6,7.1-9.8,11.3-15.5c2.7-3.7,5.1-6.9,7.1-9.6s3.6-5,5-7c1.3-2,2.4-3.6,3.2-4.9
		c0.8-1.3,1.4-2.5,1.8-3.4c0.4-0.9,0.7-1.7,0.8-2.4c0.1-0.7,0.2-1.3,0.2-2c0-1.6-0.3-3-1-4.4c-0.7-1.3-1.7-2.5-3-3.4
		c-1.3-1-3-1.7-5.1-2.2c-2.1-0.5-4.4-0.8-7.2-0.8c-2.5,0-5.1,0.3-7.7,0.9c-2.6,0.6-5.1,1.4-7.3,2.3c-2.3,1-4.3,2.1-6,3.4
		c-1.7,1.3-3,2.7-3.9,4.1c-0.4,0.7-1,1.4-1.7,2.1c-0.7,0.7-1.6,1-2.7,1c-0.8,0-1.5-0.3-2-0.8c-0.5-0.6-0.7-1.3-0.7-2.3
		c0-1.3,0.6-2.6,1.9-4.1c1.3-1.5,3-2.9,5.1-4.4c1.8-1.1,3.7-2.1,5.8-3c2.1-0.9,4.3-1.6,6.6-2.2c2.3-0.6,4.6-1.1,7-1.4
		c2.4-0.3,4.8-0.5,7.1-0.5c6.3,0,12,0.7,17.1,2.1c5.1,1.4,9.3,3.4,12.8,5.8c3.5,2.5,6.2,5.4,8,8.7c1.9,3.3,2.8,6.9,2.8,10.8
		c0,1.5-0.1,2.9-0.2,4.2c-0.1,1.4-0.4,2.8-0.8,4.2c-0.4,1.5-1,3.1-1.7,4.8c-0.7,1.7-1.6,3.6-2.8,5.8c-1.2,2.1-2.6,4.6-4.3,7.2
		c-1.7,2.7-3.7,5.7-6,9c-3.1,4.5-5.8,8.5-8.1,11.9c-2.3,3.4-4.3,6.5-6.1,9.4c-1.7,2.8-3.2,5.5-4.5,8c-1.3,2.5-2.5,5-3.5,7.6h21.5
		c1.7,0,3.4-0.1,5.1-0.3c1.7-0.2,3.2-0.5,4.5-0.7c1-0.2,1.7-0.3,2.2-0.4c0.5,0,1-0.1,1.4-0.1c1.3,0,2.2,0.3,2.7,1
		c0.6,0.7,0.8,1.4,0.8,2.1c0,0.5-0.1,1-0.3,1.4s-0.6,0.8-1.1,1.2c-0.5,0.3-1.3,0.6-2.2,0.8c-1,0.2-2.2,0.3-3.7,0.3h-71.2
		C223.1,107,223.5,105,224.1,102.8z"/>
	<path id="XMLID_25_" class="st0" d="M325.5,36.1c-1.1,0-2,0-2.7,0c-0.8,0-1.4,0.1-1.9,0.1c-0.7,0-1.4,0.1-1.9,0.1
		c-0.5,0-1.1,0.1-1.8,0.1c-1.1,0-2.1-0.3-2.8-0.8c-0.8-0.5-1.1-1.2-1.1-2.2c0-1,0.4-1.8,1.1-2.3c0.8-0.5,1.8-0.8,3.1-0.8
		c0.4,0,0.8,0,1.2,0c0.4,0,1,0.1,1.8,0.1c0.5,0,1.1,0.1,1.8,0.1c0.6,0,1.4,0,2.2,0h1.1V19.4l31.4-14.1v25.4h9.8c0.7,0,1.4,0,2.1,0
		c0.7,0,1.3-0.1,1.9-0.1c0.7,0,1.3-0.1,1.8-0.1c0.4,0,0.9,0,1.2,0c1.3,0,2.3,0.3,3.1,0.8c0.8,0.5,1.2,1.3,1.2,2.3
		c0,0.9-0.4,1.6-1.2,2.2c-0.8,0.5-1.7,0.8-2.7,0.8c-0.7,0-1.3,0-1.9-0.1c-0.6,0-1.2-0.1-1.9-0.1c-0.6,0-1.4-0.1-2.2-0.1
		c-0.8,0-1.9,0-3.1,0h-8.1v68.8c3,0,5.6-0.5,7.8-1.2c2.2-0.8,4.4-2,6.4-3.7c0.9-0.7,1.7-1.5,2.4-2.6c0.7-1,1.3-2.1,1.6-3.2
		c0.6-1.8,1.3-3,1.9-3.6c0.6-0.6,1.3-0.9,2.2-0.9c0.8,0,1.5,0.3,2.1,1s0.9,1.5,0.9,2.5c0,0.8-0.2,1.7-0.7,2.8
		c-0.5,1.1-1.2,2.3-2.2,3.5c-1,1.2-2.2,2.4-3.6,3.7c-1.4,1.2-3.1,2.4-5,3.4c-2.2,1.2-4.7,2.1-7.4,2.7s-5.7,1-9.1,1
		c-5.1,0-9.4-0.6-13-1.8c-3.6-1.2-6.6-2.9-8.9-5.2c-2.3-2.3-4-5-5.1-8.2s-1.6-6.9-1.6-11L325.5,36.1z"/>
	<path id="XMLID_27_" class="st0" d="M389,81c0-4.1,0.8-7.8,2.5-11.2s4-6.4,7-8.9c3-2.5,6.7-4.5,11-5.9c4.3-1.4,9.1-2.1,14.4-2.1
		c3.2,0,6.5,0.3,10,1c3.4,0.7,6.7,1.7,9.8,3V36.7c-2.1-0.6-4.2-1-6.6-1.4c-2.3-0.3-4.6-0.5-6.8-0.5c-2.3,0-4.6,0.1-7,0.4
		s-4.6,0.7-6.7,1.3c-2.1,0.6-4,1.3-5.8,2.2c-1.8,0.9-3.3,1.8-4.5,3c-0.7,0.6-1.4,1.1-2.1,1.4c-0.7,0.3-1.3,0.5-1.8,0.5
		c-1,0-1.8-0.3-2.4-0.8c-0.6-0.6-0.9-1.3-0.9-2.1c0-0.5,0.1-1.1,0.4-1.6c0.2-0.6,0.7-1.1,1.4-1.7c0.7-0.6,1.6-1.2,2.8-1.8
		c1.2-0.6,2.7-1.3,4.6-2.1c3.4-1.3,7.2-2.2,11.2-2.9c4.1-0.7,8.3-1,12.7-1c5.3,0,10.4,0.5,15.1,1.4c4.7,0.9,8.7,2.1,11.9,3.7
		c2.6,1.3,4.9,2.8,6.9,4.5c2,1.7,3.6,3.7,4.9,6s2.3,4.9,3,7.8c0.7,3,1,6.4,1,10.2V109h-31.3v-4.8c-3.4,2.2-6.8,3.8-10.2,4.8
		c-3.4,1-7,1.4-10.6,1.4c-5,0-9.5-0.6-13.7-1.9s-7.7-3.2-10.7-5.7c-3-2.5-5.3-5.6-7-9.2C389.9,89.9,389,85.7,389,81z M422.5,104.8
		c0.2,0,0.5,0.1,0.8,0.1s0.6,0,0.9,0c3.1,0,6.2-0.5,9.5-1.6c3.3-1.1,6.6-2.9,10-5.5V62.5c-3.2-1.6-6.4-2.7-9.4-3.4
		c-3.1-0.7-6-1.1-9-1.1c-1,0-1.9,0.1-2.8,0.2V104.8z"/>
	<path id="XMLID_30_" class="st0" d="M497.9,5.3H528v29.2c3.4-1.9,6.9-3.2,10.4-3.9c3.5-0.8,6.8-1.1,9.8-1.1c6.3,0,12.1,1,17.2,3
		c5.1,2,9.5,4.8,13.1,8.3c3.6,3.5,6.4,7.7,8.4,12.6c2,4.9,3,10.1,3,15.9s-1,11.1-2.9,16s-4.7,9.3-8.3,13.1
		c-3.6,3.7-7.9,6.7-13.1,8.8s-10.9,3.2-17.4,3.2c-3.4,0-6.8-0.4-10.3-1.1c-3.5-0.8-6.8-1.9-10-3.5v3.2h-30.1V5.3z M528,99.5
		c3.7,2.1,7.4,3.5,11.2,4.3c3.8,0.8,7.2,1.1,10.3,1.1c0.7,0,1.3,0,1.9,0s1.1,0,1.7-0.1V35.2c-0.9-0.1-1.9-0.3-2.9-0.3
		c-1-0.1-1.9-0.1-2.8-0.1c-3.2,0-6.5,0.5-9.9,1.4s-6.6,2.5-9.6,4.6V99.5z"/>
</g>
<g id="XMLID_15_">
</g>
<g id="XMLID_33_">
</g>
<g id="XMLID_34_">
</g>
<g id="XMLID_35_">
</g>
<g id="XMLID_36_">
</g>
<g id="XMLID_37_">
</g>
</svg>
