<?xml version="1.0" encoding="utf-8"?>
<!-- Generator: Adobe Illustrator 19.0.0, SVG Export Plug-In . SVG Version: 6.00 Build 0)  -->
<svg version="1.1" id="Layer_1" xmlns="http://www.w3.org/2000/svg" xmlns:xlink="http://www.w3.org/1999/xlink" x="0px" y="0px"
	 viewBox="0 0 1035.8 114.7" style="enable-background:new 0 0 1035.8 114.7;" xml:space="preserve" height="63px">
<style type="text/css">
	.st0{fill:#5A95C4;}
	.st1{fill:#94778B;}
	.st2{clip-path:url(#XMLID_51_);}
	.st3{clip-path:url(#XMLID_52_);fill:none;stroke:#5A95C4;stroke-width:2;stroke-miterlimit:10;}
</style>
<g id="XMLID_2_">
	<path id="XMLID_43_" class="st0" d="M34.8,10.6h-11c-1.9,0-3.5,0.1-5,0.2c-1.5,0.1-2.6,0.3-3.4,0.5c-1,0.2-1.7,0.3-2.2,0.4
		c-0.5,0-0.9,0.1-1.2,0.1c-1.3,0-2.3-0.3-2.9-0.8c-0.6-0.6-0.9-1.3-0.9-2.1c0-0.5,0.1-0.9,0.3-1.4C8.9,7,9.2,6.6,9.8,6.3
		C10.3,6,11.1,5.7,12,5.6c1-0.2,2.1-0.3,3.6-0.3h65.3c2,0,3.6-0.1,5.1-0.2c1.4-0.1,2.6-0.3,3.5-0.4c0.9-0.2,1.6-0.3,2.1-0.3
		c0.5,0,0.9,0,1.2,0c1.3,0,2.2,0.3,2.8,0.8c0.6,0.5,0.9,1.2,0.9,2.1c0,0.5-0.1,0.9-0.3,1.4C95.9,9,95.5,9.3,95,9.6
		c-0.5,0.3-1.3,0.5-2.2,0.7c-0.9,0.2-2.1,0.3-3.5,0.3h-17V109H34.8V10.6z"/>
</g>
<g id="XMLID_1_">
	<path id="XMLID_26_" class="st0" d="M205.2,66.3c-2.7,0-5.2-0.4-7.3-1.1c-2.1-0.8-3.9-1.8-5.3-3.2c-1.4-1.4-2.5-3.1-3.3-5
		c-0.8-2-1.1-4.1-1.1-6.4c0-2,0.4-3.8,1.3-5.6c0.9-1.8,2.1-3.4,3.6-4.7c1.5-1.4,3.4-2.5,5.5-3.3s4.5-1.2,7-1.2
		c2.7,0,5.1,0.5,7.2,1.4c2.1,0.9,3.9,2.1,5.3,3.7c1.4,1.5,2.5,3.2,3.3,5.1s1.1,3.8,1.1,5.7c0,2.1-0.4,4-1.3,5.7
		c-0.9,1.8-2.1,3.3-3.7,4.7c-1.6,1.3-3.4,2.4-5.5,3.1C209.9,65.9,207.6,66.3,205.2,66.3z M188.2,94.3c0-2,0.4-3.8,1.3-5.6
		c0.9-1.8,2.1-3.4,3.6-4.7c1.5-1.4,3.4-2.5,5.5-3.3s4.5-1.2,7-1.2c2.7,0,5.1,0.5,7.2,1.4c2.1,0.9,3.9,2.1,5.3,3.7
		c1.4,1.5,2.5,3.2,3.3,5.1s1.1,3.8,1.1,5.7c0,2.1-0.4,4-1.3,5.7c-0.9,1.8-2.1,3.3-3.7,4.7c-1.6,1.3-3.4,2.4-5.5,3.1
		c-2.1,0.8-4.4,1.2-6.8,1.2c-2.7,0-5.2-0.4-7.3-1.1c-2.1-0.8-3.9-1.8-5.3-3.2c-1.4-1.4-2.5-3.1-3.3-5
		C188.6,98.8,188.2,96.6,188.2,94.3z"/>
	<path id="XMLID_29_" class="st0" d="M237.2,68.9c0-5.8,1.1-11.1,3.3-16c2.2-4.9,5.2-9,9.1-12.6s8.5-6.2,13.7-8.2
		c5.3-2,11-2.9,17.1-2.9c3.2,0,6.6,0.4,10.1,1.1c3.5,0.7,7,1.8,10.3,3.3c2.1,0.9,3.8,1.9,5.3,2.9c1.5,1.1,2.2,2.3,2.2,3.7
		c0,1-0.3,1.7-0.8,2.2c-0.6,0.5-1.2,0.8-1.9,0.8c-0.6,0-1.2-0.1-1.8-0.4c-0.6-0.3-1.3-0.7-2.1-1.3c-1-0.9-2.1-1.8-3.3-2.5
		c-1.2-0.7-2.5-1.4-4-1.9c-2.3-0.9-4.6-1.5-6.9-2c-2.2-0.4-4.9-0.7-7.8-0.7c-1.3,0-2.4,0-3.5,0.1c-1.1,0.1-2.1,0.2-3,0.4V104
		c1.3,0.2,2.5,0.4,3.8,0.5c1.3,0.1,2.4,0.1,3.3,0.1c2.2,0,4.4-0.2,6.6-0.5c2.2-0.4,4.2-0.9,6.2-1.6c2-0.7,3.8-1.5,5.5-2.4
		c1.7-0.9,3.2-2,4.5-3.1c1-0.9,1.8-1.5,2.5-1.8c0.6-0.3,1.3-0.5,2.1-0.5c0.4,0,0.9,0.2,1.4,0.6c0.5,0.4,0.8,1,0.8,1.9
		c0,0.9-0.4,1.8-1.1,2.7c-0.7,0.9-1.9,2-3.5,3.2c-3.8,2.5-7.7,4.3-11.8,5.4s-8.6,1.6-13.6,1.6c-6.4,0-12.3-1-17.6-3
		s-9.8-4.9-13.5-8.5s-6.6-8-8.6-13.1C238.3,80.4,237.2,74.9,237.2,68.9z"/>
	<path id="XMLID_31_" class="st0" d="M326.6,5.1h31.5V61l30.8-22.3c1.4-1.1,2.7-2.1,3.9-3.2c1.2-1.1,2.4-2.2,3.5-3.5
		c1.5-1.8,3-2.7,4.5-2.7c0.9,0,1.6,0.3,2.1,0.8c0.5,0.5,0.7,1.2,0.7,1.9c0,0.4-0.1,0.9-0.3,1.4c-0.2,0.5-0.5,1-1.1,1.6
		c-0.5,0.6-1.3,1.3-2.2,2.1c-1,0.8-2.2,1.8-3.8,2.9l-13.8,10.6l27,58.3h-32.7l-18.7-41.3v41.3h-31.5V5.1z"/>
	<path id="XMLID_33_" class="st1" d="M410.5,30.5h33.2l18.8,39.4l22.1-42.8l23.1,43.3l10.5-23.7c1.3-2.9,2.3-5.5,3.1-7.8
		c0.8-2.2,1.4-4.1,1.7-5.6c0.3-1.4,0.9-2.5,1.5-3.1c0.7-0.7,1.5-1,2.3-1c1,0,1.7,0.3,2.3,1c0.6,0.7,0.8,1.3,0.8,1.9
		c0,0.4,0,0.9-0.1,1.4c-0.1,0.5-0.3,1.2-0.6,2.2c-0.3,1-0.9,2.4-1.6,4.1c-0.8,1.7-1.8,4.1-3.1,7.1L495.9,112l-24.5-46.8L447.8,112
		L410.5,30.5z"/>
	<path id="XMLID_35_" class="st1" d="M535.9,70.5c0-5.7,1-11.1,3-16.1c2-5,4.8-9.4,8.6-13.1c3.8-3.7,8.4-6.7,13.8-8.9
		c5.5-2.2,11.7-3.3,18.7-3.3c5.2,0,10.1,0.8,14.8,2.5s8.9,4.1,12.5,7.4c3.6,3.2,6.5,7.2,8.7,11.9c2.2,4.7,3.3,10,3.3,16
		c0,0.8,0,1.7,0,2.6c0,0.9-0.1,1.8-0.1,2.7h-48.3v31.4c1.7,0.3,3.4,0.6,5.2,0.8c1.8,0.2,3.3,0.3,4.5,0.3c5.2,0,9.7-0.8,13.7-2.3
		s7.4-3.7,10.3-6.4c0.5-0.5,1-1,1.4-1.4c0.4-0.5,0.8-0.9,1.2-1.3c0.7-0.9,1.3-1.5,1.8-1.8c0.5-0.3,1.1-0.5,1.8-0.5
		c0.9,0,1.6,0.2,2.1,0.7c0.5,0.5,0.8,1.1,0.8,1.9c0,0.7-0.2,1.4-0.5,2.1c-0.3,0.6-1,1.5-2.1,2.6c-3.5,3.6-7.9,6.5-13.2,8.6
		c-5.3,2.1-11.5,3.2-18.5,3.2c-5.9,0-11.4-1-16.7-2.9c-5.2-1.9-9.9-4.6-13.8-8.1c-4-3.5-7.1-7.7-9.4-12.5
		C537.1,81.8,535.9,76.4,535.9,70.5z M591.1,66.9v-31c-1.5-0.4-3.3-0.8-5.3-1c-2-0.2-3.9-0.4-5.5-0.4c-1.5,0-3.1,0.1-4.9,0.2
		c-1.8,0.1-3.3,0.3-4.5,0.6v31.6H591.1z"/>
	<path id="XMLID_38_" class="st1" d="M637.9,5.1H668v29.2c3.4-1.9,6.9-3.2,10.4-3.9c3.5-0.8,6.8-1.1,9.8-1.1c6.3,0,12.1,1,17.2,3
		c5.1,2,9.5,4.8,13.1,8.3c3.6,3.5,6.4,7.7,8.4,12.6c2,4.9,3,10.1,3,15.9s-1,11.1-2.9,16s-4.7,9.3-8.3,13.1
		c-3.6,3.7-7.9,6.7-13.1,8.8s-10.9,3.2-17.4,3.2c-3.4,0-6.8-0.4-10.3-1.1c-3.5-0.8-6.8-1.9-10-3.5v3.2h-30.1V5.1z M668,99.3
		c3.7,2.1,7.4,3.5,11.2,4.3c3.8,0.8,7.2,1.1,10.3,1.1c0.7,0,1.3,0,1.9,0s1.1,0,1.7-0.1V35c-0.9-0.1-1.9-0.3-2.9-0.3
		c-1-0.1-1.9-0.1-2.8-0.1c-3.2,0-6.5,0.5-9.9,1.4s-6.6,2.5-9.6,4.6V99.3z"/>
	<path id="XMLID_41_" class="st1" d="M743,98.9c0-0.7,0.3-1.4,0.8-2c0.5-0.6,1.3-0.9,2.2-0.9c0.7,0,1.3,0.2,1.8,0.7
		c0.5,0.5,1.1,1.1,1.8,1.7c1.2,1,2.6,2,4.2,2.8c1.6,0.8,3.4,1.5,5.2,2.1c1.9,0.6,3.8,1,5.9,1.3c2,0.3,4,0.4,6,0.4
		c2.2,0,4.1-0.2,5.7-0.5c1.6-0.3,2.9-0.8,3.9-1.4c1-0.6,1.8-1.2,2.3-1.9c0.5-0.7,0.7-1.4,0.7-2.1c0-0.7-0.1-1.4-0.4-2.1
		s-0.8-1.5-1.7-2.4s-2.1-2.1-3.7-3.4c-1.6-1.3-3.8-3.1-6.4-5.2c-5.5-4.3-10-8.1-13.5-11.3c-3.5-3.2-6.3-6.2-8.3-8.9
		c-2.1-2.7-3.5-5.2-4.2-7.5c-0.8-2.3-1.2-4.6-1.2-7c0-3,0.7-5.9,2.2-8.6c1.5-2.7,3.6-5,6.3-7.1c2.7-2,6-3.6,9.9-4.8
		c3.9-1.2,8.2-1.8,13-1.8c1.5,0,3,0.1,4.6,0.2c1.6,0.1,3.1,0.3,4.7,0.6c1.5,0.2,3,0.5,4.4,0.9c1.4,0.4,2.6,0.8,3.7,1.2
		c2.6,1.1,4.7,2.2,6.3,3.5c1.6,1.2,2.3,2.6,2.3,3.9c0,0.6-0.2,1.2-0.6,1.8c-0.4,0.6-1,0.8-1.9,0.8c-0.8,0-1.5-0.3-2.2-0.8
		c-0.7-0.6-1.5-1.3-2.7-2.1c-2.8-1.9-5.8-3.2-9-4c-3.2-0.8-6.2-1.2-8.9-1.2c-2.9,0-4.9,0.4-6,1.3c-1.1,0.9-1.7,1.9-1.7,3
		c0,0.6,0.2,1.3,0.5,2c0.3,0.8,1,1.7,1.9,2.7c0.9,1.1,2.1,2.3,3.7,3.7c1.6,1.4,3.6,3,6.2,4.8c5,3.8,9.2,7.1,12.5,10
		c3.3,2.9,5.8,5.6,7.7,8c1.9,2.5,3.2,4.8,3.9,7.1c0.7,2.3,1.1,4.7,1.1,7.2c0,3.8-0.8,7.3-2.5,10.5c-1.7,3.2-4,6-7.1,8.3
		c-3.1,2.3-6.8,4.1-11.2,5.4s-9.3,1.9-14.8,1.9c-1.9,0-3.8-0.1-5.8-0.3c-2-0.2-4-0.5-5.9-1s-3.7-1-5.5-1.6c-1.7-0.6-3.3-1.3-4.7-2.1
		C744.9,103,743,100.9,743,98.9z"/>
</g>
<g id="XMLID_75_">
	<g id="XMLID_76_">
		<defs>
			<rect id="XMLID_77_" x="84.2" y="22.3" width="90" height="89.4"/>
		</defs>
		<clipPath id="XMLID_51_">
			<use xlink:href="#XMLID_77_"  style="overflow:visible;"/>
		</clipPath>
		<g id="XMLID_78_" class="st2">
			<defs>
				<rect id="XMLID_79_" x="84.2" y="22.3" width="90" height="89.4"/>
			</defs>
			<clipPath id="XMLID_52_">
				<use xlink:href="#XMLID_79_"  style="overflow:visible;"/>
			</clipPath>
			<path id="XMLID_81_" class="st3" d="M131.1,25.8c-0.4,0-0.8,0-1.3,0c-0.5,0-1.1,0-1.6,0v3v3.4h2.8v-3.4
				c20.6,0.7,37.1,17.6,37.1,38.3c0,21.2-17.2,38.3-38.3,38.3c-21.2,0-38.3-17.2-38.3-38.3c0-7.9,2.4-15.2,6.5-21.3l-2.5-1.6
				c-4.4,6.6-6.9,14.4-6.9,22.9c0,22.8,18.5,41.3,41.3,41.3c9.1,0,17.4-2.9,24.3-7.9c10.3-7.5,17.1-19.7,17.1-33.5
				C171.1,44.8,153.3,26.5,131.1,25.8"/>
			<polygon id="XMLID_80_" class="st3" points="131.1,35.4 128.2,35.4 128.2,66 131.1,66 			"/>
		</g>
	</g>
</g>
<path id="XMLID_18_" class="st1" d="M839.7,28.5c-5.3,0-9.3-1.1-12.2-3.4c-2.8-2.2-4.2-5.2-4.2-8.9c0-1.5,0.4-3,1.2-4.3
	c0.8-1.4,2-2.6,3.5-3.6c1.5-1,3.3-1.9,5.3-2.5c2.1-0.6,4.3-1,6.8-1c2.6,0,5,0.4,7,1.1c2,0.7,3.7,1.7,5.1,2.9s2.5,2.5,3.2,4
	s1.1,2.9,1.1,4.4c0,1.6-0.4,3-1.3,4.4c-0.9,1.4-2,2.6-3.6,3.6c-1.5,1-3.3,1.8-5.3,2.4S842.1,28.5,839.7,28.5z M824,41.3h31.5v67.4
	h-32.2L824,41.3z"/>
<g id="XMLID_16_">
	<path id="XMLID_21_" class="st1" d="M880.5,35.8c-1.1,0-2,0-2.7,0c-0.8,0-1.4,0.1-1.9,0.1c-0.7,0-1.4,0.1-1.9,0.1
		c-0.5,0-1.1,0.1-1.8,0.1c-1.1,0-2.1-0.3-2.8-0.8c-0.8-0.5-1.1-1.2-1.1-2.2c0-1,0.4-1.8,1.1-2.3c0.8-0.5,1.8-0.8,3.1-0.8
		c0.4,0,0.8,0,1.2,0c0.4,0,1,0.1,1.8,0.1c0.5,0,1.1,0.1,1.8,0.1c0.6,0,1.4,0,2.2,0h1.1V19.1l31.4-14.1v25.4h9.8c0.7,0,1.4,0,2.1,0
		c0.7,0,1.3-0.1,1.9-0.1c0.7,0,1.3-0.1,1.8-0.1c0.4,0,0.9,0,1.2,0c1.3,0,2.3,0.3,3.1,0.8s1.2,1.3,1.2,2.3c0,0.9-0.4,1.6-1.2,2.2
		s-1.7,0.8-2.7,0.8c-0.7,0-1.3,0-1.9-0.1c-0.6,0-1.2-0.1-1.9-0.1c-0.6,0-1.4-0.1-2.2-0.1c-0.8,0-1.9,0-3.1,0h-8.1v68.8
		c3,0,5.6-0.5,7.8-1.2c2.2-0.8,4.4-2,6.4-3.7c0.9-0.7,1.7-1.5,2.4-2.6c0.7-1,1.3-2.1,1.6-3.2c0.6-1.8,1.3-3,1.9-3.6
		c0.6-0.6,1.3-0.9,2.2-0.9c0.8,0,1.5,0.3,2.1,1s0.9,1.5,0.9,2.5c0,0.8-0.2,1.7-0.7,2.8c-0.5,1.1-1.2,2.3-2.2,3.5
		c-1,1.2-2.2,2.4-3.6,3.7c-1.4,1.2-3.1,2.4-5,3.4c-2.2,1.2-4.7,2.1-7.4,2.7s-5.7,1-9.1,1c-5.1,0-9.4-0.6-13-1.8
		c-3.6-1.2-6.6-2.9-8.9-5.2c-2.3-2.3-4-5-5.1-8.2s-1.6-6.9-1.6-11L880.5,35.8z"/>
	<path id="XMLID_23_" class="st1" d="M943,70.5c0-5.7,1-11.1,3-16.1c2-5,4.8-9.4,8.6-13.1c3.8-3.7,8.4-6.7,13.8-8.9
		c5.5-2.2,11.7-3.3,18.7-3.3c5.2,0,10.1,0.8,14.8,2.5c4.7,1.7,8.9,4.1,12.5,7.4c3.6,3.2,6.5,7.2,8.7,11.9c2.2,4.7,3.3,10,3.3,16
		c0,0.8,0,1.7,0,2.6c0,0.9-0.1,1.8-0.1,2.7h-48.3v31.4c1.7,0.3,3.4,0.6,5.2,0.8c1.8,0.2,3.3,0.3,4.5,0.3c5.2,0,9.7-0.8,13.7-2.3
		s7.4-3.7,10.3-6.4c0.5-0.5,1-1,1.4-1.4c0.4-0.5,0.8-0.9,1.2-1.3c0.7-0.9,1.3-1.5,1.8-1.8c0.5-0.3,1.1-0.5,1.8-0.5
		c0.9,0,1.6,0.2,2.1,0.7c0.5,0.5,0.8,1.1,0.8,1.9c0,0.7-0.2,1.4-0.5,2.1c-0.3,0.6-1,1.5-2.1,2.6c-3.5,3.6-7.9,6.5-13.2,8.6
		c-5.3,2.1-11.5,3.2-18.5,3.2c-5.9,0-11.4-1-16.7-2.9c-5.2-1.9-9.9-4.6-13.8-8.1c-4-3.5-7.1-7.7-9.4-12.5
		C944.1,81.8,943,76.4,943,70.5z M998.1,66.9v-31c-1.5-0.4-3.3-0.8-5.3-1c-2-0.2-3.9-0.4-5.5-0.4c-1.5,0-3.1,0.1-4.9,0.2
		c-1.8,0.1-3.3,0.3-4.5,0.6v31.6H998.1z"/>
</g>
<g id="XMLID_17_">
</g>
<g id="XMLID_45_">
</g>
<g id="XMLID_46_">
</g>
<g id="XMLID_47_">
</g>
<g id="XMLID_48_">
</g>
<g id="XMLID_49_">
</g>
</svg>
