<?xml version="1.0" encoding="utf-8"?>
<!-- Generator: Adobe Illustrator 19.0.0, SVG Export Plug-In . SVG Version: 6.00 Build 0)  -->
<svg version="1.1" id="Layer_1" xmlns="http://www.w3.org/2000/svg" xmlns:xlink="http://www.w3.org/1999/xlink" x="0px" y="0px"
	 viewBox="0 0 1320.8 114.7" style="enable-background:new 0 0 1320.8 114.7;" xml:space="preserve" height="63px">
<style type="text/css">
	.st0{fill:#4BA2DA;}
	.st1{fill:#67C18C;}
	.st2{clip-path:url(#XMLID_72_);}
	.st3{clip-path:url(#XMLID_73_);fill:none;stroke:#4BA2D9;stroke-width:2;stroke-miterlimit:10;}
</style>
<g id="XMLID_2_">
	<path id="XMLID_64_" class="st0" d="M34.8,10.6h-11c-1.9,0-3.5,0.1-5,0.2c-1.5,0.1-2.6,0.3-3.4,0.5c-1,0.2-1.7,0.3-2.2,0.4
		c-0.5,0-0.9,0.1-1.2,0.1c-1.3,0-2.3-0.3-2.9-0.8c-0.6-0.6-0.9-1.3-0.9-2.1c0-0.5,0.1-0.9,0.3-1.4C8.9,7,9.2,6.6,9.8,6.3
		C10.3,6,11.1,5.7,12,5.6c1-0.2,2.1-0.3,3.6-0.3h65.3c2,0,3.6-0.1,5.1-0.2c1.4-0.1,2.6-0.3,3.5-0.4c0.9-0.2,1.6-0.3,2.1-0.3
		c0.5,0,0.9,0,1.2,0c1.3,0,2.2,0.3,2.8,0.8c0.6,0.5,0.9,1.2,0.9,2.1c0,0.5-0.1,0.9-0.3,1.4C95.9,9,95.5,9.3,95,9.6
		c-0.5,0.3-1.3,0.5-2.2,0.7c-0.9,0.2-2.1,0.3-3.5,0.3h-17V109H34.8V10.6z"/>
</g>
<g id="XMLID_1_">
	<path id="XMLID_30_" class="st0" d="M205.2,66.3c-2.7,0-5.2-0.4-7.3-1.1c-2.1-0.8-3.9-1.8-5.3-3.2c-1.4-1.4-2.5-3.1-3.3-5
		c-0.8-2-1.1-4.1-1.1-6.4c0-2,0.4-3.8,1.3-5.6c0.9-1.8,2.1-3.4,3.6-4.7c1.5-1.4,3.4-2.5,5.5-3.3s4.5-1.2,7-1.2
		c2.7,0,5.1,0.5,7.2,1.4c2.1,0.9,3.9,2.1,5.3,3.7c1.4,1.5,2.5,3.2,3.3,5.1s1.1,3.8,1.1,5.7c0,2.1-0.4,4-1.3,5.7
		c-0.9,1.8-2.1,3.3-3.7,4.7c-1.6,1.3-3.4,2.4-5.5,3.1C209.9,65.9,207.6,66.3,205.2,66.3z M188.2,94.3c0-2,0.4-3.8,1.3-5.6
		c0.9-1.8,2.1-3.4,3.6-4.7c1.5-1.4,3.4-2.5,5.5-3.3s4.5-1.2,7-1.2c2.7,0,5.1,0.5,7.2,1.4c2.1,0.9,3.9,2.1,5.3,3.7
		c1.4,1.5,2.5,3.2,3.3,5.1s1.1,3.8,1.1,5.7c0,2.1-0.4,4-1.3,5.7c-0.9,1.8-2.1,3.3-3.7,4.7c-1.6,1.3-3.4,2.4-5.5,3.1
		c-2.1,0.8-4.4,1.2-6.8,1.2c-2.7,0-5.2-0.4-7.3-1.1c-2.1-0.8-3.9-1.8-5.3-3.2c-1.4-1.4-2.5-3.1-3.3-5
		C188.6,98.8,188.2,96.6,188.2,94.3z"/>
	<path id="XMLID_33_" class="st0" d="M237.2,68.9c0-5.8,1.1-11.1,3.3-16c2.2-4.9,5.2-9,9.1-12.6s8.5-6.2,13.7-8.2
		c5.3-2,11-2.9,17.1-2.9c3.2,0,6.6,0.4,10.1,1.1c3.5,0.7,7,1.8,10.3,3.3c2.1,0.9,3.8,1.9,5.3,2.9c1.5,1.1,2.2,2.3,2.2,3.7
		c0,1-0.3,1.7-0.8,2.2c-0.6,0.5-1.2,0.8-1.9,0.8c-0.6,0-1.2-0.1-1.8-0.4c-0.6-0.3-1.3-0.7-2.1-1.3c-1-0.9-2.1-1.8-3.3-2.5
		c-1.2-0.7-2.5-1.4-4-1.9c-2.3-0.9-4.6-1.5-6.9-2c-2.2-0.4-4.9-0.7-7.8-0.7c-1.3,0-2.4,0-3.5,0.1c-1.1,0.1-2.1,0.2-3,0.4V104
		c1.3,0.2,2.5,0.4,3.8,0.5c1.3,0.1,2.4,0.1,3.3,0.1c2.2,0,4.4-0.2,6.6-0.5c2.2-0.4,4.2-0.9,6.2-1.6c2-0.7,3.8-1.5,5.5-2.4
		c1.7-0.9,3.2-2,4.5-3.1c1-0.9,1.8-1.5,2.5-1.8c0.6-0.3,1.3-0.5,2.1-0.5c0.4,0,0.9,0.2,1.4,0.6c0.5,0.4,0.8,1,0.8,1.9
		c0,0.9-0.4,1.8-1.1,2.7c-0.7,0.9-1.9,2-3.5,3.2c-3.8,2.5-7.7,4.3-11.8,5.4s-8.6,1.6-13.6,1.6c-6.4,0-12.3-1-17.6-3
		s-9.8-4.9-13.5-8.5s-6.6-8-8.6-13.1C238.3,80.4,237.2,74.9,237.2,68.9z"/>
	<path id="XMLID_35_" class="st0" d="M326.6,5.1h31.5V61l30.8-22.3c1.4-1.1,2.7-2.1,3.9-3.2c1.2-1.1,2.4-2.2,3.5-3.5
		c1.5-1.8,3-2.7,4.5-2.7c0.9,0,1.6,0.3,2.1,0.8c0.5,0.5,0.7,1.2,0.7,1.9c0,0.4-0.1,0.9-0.3,1.4c-0.2,0.5-0.5,1-1.1,1.6
		c-0.5,0.6-1.3,1.3-2.2,2.1c-1,0.8-2.2,1.8-3.8,2.9l-13.8,10.6l27,58.3h-32.7l-18.7-41.3v41.3h-31.5V5.1z"/>
	<path id="XMLID_37_" class="st1" d="M422.8,5.1h30.1v29.2c3.4-1.9,6.9-3.2,10.4-3.9c3.5-0.8,6.7-1.1,9.8-1.1c6.3,0,12.1,1,17.2,3
		c5.1,2,9.5,4.8,13.1,8.3c3.6,3.5,6.4,7.7,8.4,12.6c2,4.9,3,10.1,3,15.9s-1,11.1-2.9,16c-1.9,5-4.7,9.3-8.3,13.1s-7.9,6.7-13.1,8.8
		s-10.9,3.2-17.4,3.2c-3.4,0-6.8-0.4-10.3-1.1c-3.5-0.8-6.8-1.9-10-3.5v3.2h-30.1V5.1z M452.9,99.3c3.7,2.1,7.4,3.5,11.2,4.3
		c3.8,0.8,7.2,1.1,10.3,1.1c0.7,0,1.3,0,1.9,0s1.1,0,1.7-0.1V35c-0.9-0.1-1.9-0.3-2.9-0.3c-1-0.1-1.9-0.1-2.8-0.1
		c-3.2,0-6.5,0.5-9.9,1.4s-6.6,2.5-9.6,4.6V99.3z"/>
	<path id="XMLID_40_" class="st1" d="M526.9,68.8c0-5.6,1.1-10.8,3.2-15.6c2.1-4.8,5.1-9,8.8-12.6c3.7-3.6,8.2-6.4,13.3-8.4
		c5.2-2,10.8-3,16.8-3c6.3,0,12.1,1.1,17.2,3.2c5.1,2.1,9.4,5,13,8.6c3.6,3.6,6.3,7.9,8.2,12.8c1.9,4.9,2.9,10.1,2.9,15.6
		c0,5.6-1,10.9-3,15.8c-2,4.9-4.8,9.2-8.4,12.9c-3.6,3.7-8,6.6-13.1,8.8s-10.8,3.2-17.1,3.2c-5.9,0-11.4-1-16.5-3
		c-5.1-2-9.5-4.8-13.3-8.4c-3.8-3.6-6.7-8-8.9-13.1C528,80.6,526.9,74.9,526.9,68.8z M566.7,104.6c0.4,0,0.8,0.1,1.1,0.1
		c0.4,0,0.7,0,1.1,0c4.7,0,9.2-0.8,13.5-2.3c4.3-1.6,8.1-3.8,11.4-6.8c3.3-3,5.9-6.7,7.8-11c1.9-4.3,2.9-9.3,2.9-14.9
		c0-5.3-0.9-10.1-2.6-14.4c-1.8-4.3-4.2-8-7.4-11.1c-3.2-3.1-6.9-5.5-11.2-7.1c-4.3-1.7-9.1-2.5-14.4-2.5c-0.4,0-0.8,0-1.1,0
		c-0.3,0-0.7,0-1,0.1V104.6z"/>
	<path id="XMLID_43_" class="st1" d="M622.4,68.8c0-5.6,1.1-10.8,3.2-15.6c2.1-4.8,5.1-9,8.8-12.6c3.7-3.6,8.2-6.4,13.3-8.4
		c5.2-2,10.8-3,16.8-3c6.3,0,12.1,1.1,17.2,3.2c5.1,2.1,9.4,5,13,8.6c3.6,3.6,6.3,7.9,8.2,12.8c1.9,4.9,2.9,10.1,2.9,15.6
		c0,5.6-1,10.9-3,15.8c-2,4.9-4.8,9.2-8.4,12.9c-3.6,3.7-8,6.6-13.1,8.8s-10.8,3.2-17.1,3.2c-5.9,0-11.4-1-16.5-3
		c-5.1-2-9.5-4.8-13.3-8.4c-3.8-3.6-6.7-8-8.9-13.1C623.4,80.6,622.4,74.9,622.4,68.8z M662.1,104.6c0.4,0,0.8,0.1,1.1,0.1
		c0.4,0,0.7,0,1.1,0c4.7,0,9.2-0.8,13.5-2.3c4.3-1.6,8.1-3.8,11.4-6.8c3.3-3,5.9-6.7,7.8-11c1.9-4.3,2.9-9.3,2.9-14.9
		c0-5.3-0.9-10.1-2.6-14.4c-1.8-4.3-4.2-8-7.4-11.1c-3.2-3.1-6.9-5.5-11.2-7.1c-4.3-1.7-9.1-2.5-14.4-2.5c-0.4,0-0.8,0-1.1,0
		c-0.3,0-0.7,0-1,0.1V104.6z"/>
	<path id="XMLID_46_" class="st1" d="M725.8,35.8c-1.1,0-2,0-2.7,0c-0.8,0-1.4,0.1-1.9,0.1c-0.7,0-1.4,0.1-1.9,0.1
		c-0.5,0-1.1,0.1-1.8,0.1c-1.1,0-2.1-0.3-2.8-0.8s-1.1-1.2-1.1-2.2c0-1,0.4-1.8,1.1-2.3s1.8-0.8,3.1-0.8c0.4,0,0.8,0,1.2,0
		c0.4,0,1,0.1,1.8,0.1c0.5,0,1.1,0.1,1.8,0.1c0.6,0,1.4,0,2.2,0h1.1V19.1l31.4-14.1v25.4h9.8c0.7,0,1.4,0,2.1,0
		c0.7,0,1.3-0.1,1.9-0.1c0.7,0,1.3-0.1,1.8-0.1c0.4,0,0.9,0,1.2,0c1.3,0,2.3,0.3,3.1,0.8c0.8,0.5,1.2,1.3,1.2,2.3
		c0,0.9-0.4,1.6-1.2,2.2c-0.8,0.5-1.7,0.8-2.7,0.8c-0.7,0-1.3,0-1.9-0.1c-0.6,0-1.2-0.1-1.9-0.1c-0.6,0-1.4-0.1-2.2-0.1
		c-0.8,0-1.9,0-3.1,0h-8.1v68.8c3,0,5.6-0.5,7.8-1.2c2.2-0.8,4.4-2,6.4-3.7c0.9-0.7,1.7-1.5,2.4-2.6c0.7-1,1.3-2.1,1.6-3.2
		c0.6-1.8,1.3-3,1.9-3.6c0.6-0.6,1.3-0.9,2.2-0.9c0.8,0,1.5,0.3,2.1,1s0.9,1.5,0.9,2.5c0,0.8-0.2,1.7-0.7,2.8
		c-0.5,1.1-1.2,2.3-2.2,3.5c-1,1.2-2.2,2.4-3.6,3.7c-1.4,1.2-3.1,2.4-5,3.4c-2.2,1.2-4.7,2.1-7.4,2.7c-2.7,0.7-5.8,1-9.1,1
		c-5.1,0-9.4-0.6-13-1.8c-3.6-1.2-6.6-2.9-8.9-5.2c-2.3-2.3-4-5-5.1-8.2c-1.1-3.2-1.6-6.9-1.6-11L725.8,35.8z"/>
	<path id="XMLID_48_" class="st1" d="M795.1,5.1h31.5v103.6h-31.5V5.1z"/>
	<path id="XMLID_50_" class="st1" d="M843.8,68.8c0-5.6,1.1-10.8,3.2-15.6c2.1-4.8,5.1-9,8.8-12.6c3.7-3.6,8.2-6.4,13.3-8.4
		c5.2-2,10.8-3,16.8-3c6.3,0,12.1,1.1,17.2,3.2c5.1,2.1,9.4,5,13,8.6c3.6,3.6,6.3,7.9,8.2,12.8c1.9,4.9,2.9,10.1,2.9,15.6
		c0,5.6-1,10.9-3,15.8c-2,4.9-4.8,9.2-8.4,12.9c-3.6,3.7-8,6.6-13.1,8.8s-10.8,3.2-17.1,3.2c-5.9,0-11.4-1-16.5-3
		c-5.1-2-9.5-4.8-13.3-8.4c-3.8-3.6-6.7-8-8.9-13.1C844.8,80.6,843.8,74.9,843.8,68.8z M883.5,104.6c0.4,0,0.8,0.1,1.1,0.1
		c0.4,0,0.7,0,1.1,0c4.7,0,9.2-0.8,13.5-2.3c4.3-1.6,8.1-3.8,11.4-6.8c3.3-3,5.9-6.7,7.8-11c1.9-4.3,2.9-9.3,2.9-14.9
		c0-5.3-0.9-10.1-2.6-14.4c-1.8-4.3-4.2-8-7.4-11.1c-3.2-3.1-6.9-5.5-11.2-7.1c-4.3-1.7-9.1-2.5-14.4-2.5c-0.4,0-0.8,0-1.1,0
		c-0.3,0-0.7,0-1,0.1V104.6z"/>
	<path id="XMLID_53_" class="st1" d="M940.3,80.7c0-4.1,0.8-7.8,2.5-11.2s4-6.4,7-8.9c3-2.5,6.7-4.5,11-5.9
		c4.3-1.4,9.1-2.1,14.4-2.1c3.2,0,6.5,0.3,10,1c3.4,0.7,6.7,1.7,9.8,3V36.4c-2.1-0.6-4.2-1-6.6-1.4c-2.3-0.3-4.6-0.5-6.8-0.5
		c-2.3,0-4.6,0.1-7,0.4s-4.6,0.7-6.7,1.3c-2.1,0.6-4,1.3-5.8,2.2c-1.8,0.9-3.3,1.8-4.5,3c-0.7,0.6-1.4,1.1-2.1,1.4
		c-0.7,0.3-1.3,0.5-1.8,0.5c-1,0-1.8-0.3-2.4-0.8c-0.6-0.6-0.9-1.3-0.9-2.1c0-0.5,0.1-1.1,0.4-1.6c0.2-0.6,0.7-1.1,1.4-1.7
		c0.7-0.6,1.6-1.2,2.8-1.8c1.2-0.6,2.7-1.3,4.6-2.1c3.4-1.3,7.2-2.2,11.2-2.9c4.1-0.7,8.3-1,12.7-1c5.3,0,10.4,0.5,15.1,1.4
		c4.7,0.9,8.7,2.1,11.9,3.7c2.6,1.3,4.9,2.8,6.9,4.5c2,1.7,3.6,3.7,4.9,6s2.3,4.9,3,7.8c0.7,3,1,6.4,1,10.2v45.9h-31.3v-4.8
		c-3.4,2.2-6.8,3.8-10.2,4.8c-3.4,1-7,1.4-10.6,1.4c-5,0-9.5-0.6-13.7-1.9s-7.7-3.2-10.7-5.7c-3-2.5-5.3-5.6-7-9.2
		C941.1,89.7,940.3,85.5,940.3,80.7z M973.8,104.6c0.2,0,0.5,0.1,0.8,0.1s0.6,0,0.9,0c3.1,0,6.2-0.5,9.5-1.6c3.3-1.1,6.6-2.9,10-5.5
		V62.3c-3.2-1.6-6.4-2.7-9.4-3.4c-3.1-0.7-6-1.1-9-1.1c-1,0-1.9,0.1-2.8,0.2V104.6z"/>
	<path id="XMLID_56_" class="st1" d="M1042.7,69.1c0-5.4,1-10.5,2.9-15.3s4.7-9.1,8.4-12.7c3.7-3.6,8.1-6.5,13.4-8.7
		c5.3-2.1,11.3-3.2,17.9-3.2c3.2,0,6.5,0.4,9.8,1.1c3.3,0.7,6.5,1.9,9.6,3.4V5.1h30.2v103.6h-30.2v-4c-3.2,1.9-6.5,3.3-9.9,4.1
		s-6.8,1.3-10.3,1.3c-6.3,0-12-1-17.2-3c-5.2-2-9.5-4.8-13.2-8.5c-3.6-3.6-6.5-7.9-8.5-13C1043.7,80.6,1042.7,75.1,1042.7,69.1z
		 M1079.5,104.2c0.9,0.1,1.8,0.3,2.8,0.3s2,0.1,2.9,0.1c3.3,0,6.6-0.5,9.9-1.6c3.3-1.1,6.5-2.7,9.6-4.8V40.2
		c-3.4-2-6.9-3.4-10.3-4.3c-3.5-0.9-7-1.4-10.5-1.4c-0.7,0-1.5,0-2.2,0.1c-0.7,0-1.4,0.1-2.1,0.2V104.2z"/>
	<path id="XMLID_59_" class="st1" d="M1152,70.5c0-5.7,1-11.1,3-16.1c2-5,4.8-9.4,8.6-13.1c3.8-3.7,8.4-6.7,13.8-8.9
		c5.5-2.2,11.7-3.3,18.7-3.3c5.2,0,10.1,0.8,14.8,2.5s8.9,4.1,12.5,7.4c3.6,3.2,6.5,7.2,8.7,11.9c2.2,4.7,3.3,10,3.3,16
		c0,0.8,0,1.7,0,2.6c0,0.9-0.1,1.8-0.1,2.7h-48.3v31.4c1.7,0.3,3.4,0.6,5.2,0.8c1.8,0.2,3.3,0.3,4.5,0.3c5.2,0,9.7-0.8,13.7-2.3
		s7.4-3.7,10.3-6.4c0.5-0.5,1-1,1.4-1.4c0.4-0.5,0.8-0.9,1.2-1.3c0.7-0.9,1.3-1.5,1.8-1.8c0.5-0.3,1.1-0.5,1.8-0.5
		c0.9,0,1.6,0.2,2.1,0.7c0.5,0.5,0.8,1.1,0.8,1.9c0,0.7-0.2,1.4-0.5,2.1c-0.3,0.6-1,1.5-2.1,2.6c-3.5,3.6-7.9,6.5-13.2,8.6
		c-5.3,2.1-11.5,3.2-18.5,3.2c-5.9,0-11.4-1-16.7-2.9c-5.2-1.9-9.9-4.6-13.8-8.1c-4-3.5-7.1-7.7-9.4-12.5
		C1153.2,81.8,1152,76.4,1152,70.5z M1207.2,66.9v-31c-1.5-0.4-3.3-0.8-5.3-1c-2-0.2-3.9-0.4-5.5-0.4c-1.5,0-3.1,0.1-4.9,0.2
		c-1.8,0.1-3.3,0.3-4.5,0.6v31.6H1207.2z"/>
	<path id="XMLID_62_" class="st1" d="M1254,30.5h31.5v23c3.4-8.3,7-14.5,10.9-18.4c3.9-3.9,7.8-5.9,11.7-5.9c2.2,0,3.9,0.6,5.2,1.7
		c1.3,1.1,1.9,2.6,1.9,4.4c0,1-0.2,2-0.6,2.8c-0.4,0.8-0.9,1.5-1.5,2.1c-0.6,0.6-1.4,1-2.2,1.4c-0.8,0.3-1.6,0.5-2.5,0.5
		c-0.6,0-1.1,0-1.6-0.1c-0.5-0.1-1.2-0.3-2.1-0.7c-0.5-0.2-1.1-0.4-1.6-0.6c-0.5-0.1-1.1-0.2-1.8-0.2c-1.3,0-2.8,0.9-4.6,2.8
		c-1.8,1.9-3.5,4.5-5.2,7.8c-1.7,3.3-3.1,7.2-4.3,11.7c-1.2,4.5-1.8,9.4-1.8,14.6v31.3H1254V30.5z"/>
</g>
<g id="XMLID_75_">
	<g id="XMLID_76_">
		<defs>
			<rect id="XMLID_77_" x="84.2" y="22.3" width="90" height="89.4"/>
		</defs>
		<clipPath id="XMLID_72_">
			<use xlink:href="#XMLID_77_"  style="overflow:visible;"/>
		</clipPath>
		<g id="XMLID_78_" class="st2">
			<defs>
				<rect id="XMLID_79_" x="84.2" y="22.3" width="90" height="89.4"/>
			</defs>
			<clipPath id="XMLID_73_">
				<use xlink:href="#XMLID_79_"  style="overflow:visible;"/>
			</clipPath>
			<path id="XMLID_81_" class="st3" d="M131.1,25.8c-0.4,0-0.8,0-1.3,0c-0.5,0-1.1,0-1.6,0v3v3.4h2.8v-3.4
				c20.6,0.7,37.1,17.6,37.1,38.3c0,21.2-17.2,38.3-38.3,38.3c-21.2,0-38.3-17.2-38.3-38.3c0-7.9,2.4-15.2,6.5-21.3l-2.5-1.6
				c-4.4,6.6-6.9,14.4-6.9,22.9c0,22.8,18.5,41.3,41.3,41.3c9.1,0,17.4-2.9,24.3-7.9c10.3-7.5,17.1-19.7,17.1-33.5
				C171.1,44.8,153.3,26.5,131.1,25.8"/>
			<polygon id="XMLID_80_" class="st3" points="131.1,35.4 128.2,35.4 128.2,66 131.1,66 			"/>
		</g>
	</g>
</g>
<g id="XMLID_29_">
</g>
<g id="XMLID_66_">
</g>
<g id="XMLID_67_">
</g>
<g id="XMLID_68_">
</g>
<g id="XMLID_69_">
</g>
<g id="XMLID_70_">
</g>
</svg>
