<?xml version="1.0" encoding="UTF-8"?>
<!-- Created with Inkscape (http://www.inkscape.org/) -->
<svg width="1543.8" height="187.6" version="1.1" viewBox="0 0 1543.8 187.6" xmlns="http://www.w3.org/2000/svg" xmlns:xlink="http://www.w3.org/1999/xlink">
 <defs>
  <clipPath id="clipPath4">
   <path transform="translate(-405.16 -212.07)" d="m358.3 126.21h89.96v89.446h-89.96z"/>
  </clipPath>
  <clipPath id="clipPath6">
   <path transform="translate(-405.17 -202.48)" d="m358.3 126.21h89.96v89.446h-89.96z"/>
  </clipPath>
 </defs>
 <g transform="translate(-350.51 7.3516)">
  <g transform="matrix(1.3333 0 0 1.3333 376.46 145.98)" aria-label="T
:ckRegisters">
   <path d="m88.184-101.73q0 3.3691-7.1045 3.3691h-16.992v98.364h-37.5v-98.364h-10.986q-5.6396 0-7.7637 0.5127-2.7832 0.58594-4.0283 0.58594-3.7354 0-3.7354-2.9297 0-3.4424 7.251-3.4424h65.332q5.0537 0 7.4707-0.43945 2.9297-0.51269 4.3945-0.51269 3.6621 0 3.6621 2.8564z" fill="#4ba2d9"/>
   <path d="m196.75-42.707q-3.8818 0-7.0312-1.0986-3.1494-1.1719-5.2734-3.2227-4.3945-4.3213-4.3945-11.499 0-6.0059 4.9072-10.327 4.9805-4.4678 12.451-4.4678 7.6904 0 12.451 5.0537 4.3945 4.6143 4.3945 10.84t-4.9805 10.4q-5.127 4.3213-12.524 4.3213zm-15.601 34.424q-1.0986-2.9297-1.0986-6.1523t1.2451-5.8594q1.3184-2.71 3.6621-4.7607 4.9805-4.4678 12.451-4.4678 7.6904 0 12.451 5.0537 4.3945 4.6143 4.3945 10.84 0 6.2256-4.9805 10.4-5.127 4.3213-12.305 4.3213-12.158 0-15.82-9.375zm83.865 3.2959q3.4424 0.65918 6.8848 0.65918 3.5156 0 6.7383-0.5127 3.2959-0.58594 6.2256-1.6113 6.2256-2.1973 10.034-5.5664 2.71-2.3438 3.9551-2.3438 2.7832 0 2.7832 2.4902 0 2.4902-4.541 5.9326-10.547 7.0312-25.342 7.0312-19.263 0-31.128-11.572-11.646-11.426-11.646-29.663 0-17.285 12.378-28.564 12.305-11.133 30.908-11.133 10.62 0 20.435 4.3945 7.4707 3.2227 7.4707 6.665 0 1.4648-0.87891 2.2705-0.80566 0.73242-1.831 0.73242-1.5381 0-3.9551-1.6846-4.7607-4.541-14.136-6.3721-3.3692-0.65918-7.3975-0.65918t-6.958 0.58594zm53.353-98.95h31.494v55.884l30.835-22.339q4.3945-3.2959 7.0312-6.3721t4.4678-3.0762q3.2959 0 3.2959 2.71 0 2.0508-2.4902 4.1016l-18.677 14.429 26.953 58.301h-32.739l-18.677-41.309v41.309h-31.494z" fill="#4ba2d9"/>
   <path d="m464.27-35.822 6.0059 0.43945q12.891 0 21.899-9.0088t9.0088-22.412q0-17.578-15.454-26.074-8.4961-4.6875-18.164-5.4199-4.1016-0.36621-7.6172-0.36621h-4.9805q-1.5381 0-2.71 0.07324v98.291h-37.354v-103.64q17.139 0 27.759 0 10.62 0 13.843 0.0733 3.2226 0.0732 5.7129 0.21972 2.5635 0.0733 4.7607 0.21973 3.2227 0.29297 9.082 1.3916 5.9326 1.0986 11.719 4.1748 5.7861 3.0762 9.9609 7.6172 9.0088 9.668 9.0088 22.998 0 13.184-8.3496 23.291-8.5693 10.327-22.852 13.33 6.8115 21.094 17.358 25.195 3.2227 1.2451 6.4453 1.2451l5.7861-1.3916q2.71 0 2.71 2.7832 0 3.8818-9.082 3.8818-6.5918 0-12.085-3.6621-8.5693-5.127-14.575-19.922l-2.124-5.2002q-0.5127-1.2451-0.95215-1.5381-0.36621-0.29297-1.3916-0.29297-0.95215 0-1.6846 0.14648l-1.7578 0.07324q-2.9297 0-4.0283-1.0986-1.0254-1.0986-1.0254-2.2705 0-3.1494 5.127-3.1494zm128.25 17.725q2.8564 0 2.8564 2.6367 0 1.9775-2.5635 4.6875-11.572 11.865-31.714 11.865-18.091 0-30.469-10.913-12.817-11.353-12.817-28.711 0-17.725 11.572-29.15 12.231-12.158 32.52-12.158 16.26 0 27.319 9.8877 11.938 10.62 11.938 27.905 0 2.4902-0.14649 5.2734h-48.34v31.421q4.9805 1.0254 11.206 1.0254 13.184 0 22.485-8.7158 1.9043-1.9043 2.71-3.0029 1.6846-2.0508 3.4424-2.0508zm-19.556-55.005q-4.7607-1.3916-10.767-1.3916t-9.5215 0.80566v31.567h20.288zm62.769 48.926q-6.5186 1.9775-6.5186 4.3213 0 2.2705 3.8086 3.1494 7.3975 1.7578 20.361 2.124 12.964 0.29297 19.482 1.9775 6.5918 1.6113 10.474 4.1016 7.0312 4.6143 7.0312 12.231 0 9.5215-9.4482 15.454-10.474 6.5186-29.517 6.5186-19.702 0-32.52-5.8594-4.6143-2.2705-4.6143-5.127 0-1.2451 0.8789-1.9775 0.95215-0.73242 1.9775-0.73242 1.2451 0 2.8564 0.95215 3.7354 2.124 6.8848 3.5156 3.2227 1.4648 10.034 2.7832 6.8115 1.3184 13.11 1.3184 6.3721 0 10.327-0.58594 4.0283-0.5127 6.665-1.2451 5.2002-1.5381 5.2002-3.4424 0-1.7578-1.0254-2.5635t-2.71-1.4648q-1.6113-0.58594-4.541-1.0986-6.0059-1.0254-16.333-1.5381-10.327-0.5127-16.333-2.0508-6.0059-1.4648-9.8145-3.8086-7.3975-4.4678-7.3975-12.085 0-10.986 14.868-17.798-6.8115-3.7354-10.84-9.8145-4.0283-6.1523-4.0283-13.257 0-7.1777 2.6367-12.378 2.71-5.2734 7.544-9.082 10.181-8.2031 26.294-8.2031 7.1777 0 14.429 2.1973 10.4-10.034 19.263-10.034 3.7354 0 5.4932 1.2451 1.8311 1.2451 1.8311 3.1494 0 1.9043-1.2451 2.7832-1.2451 0.80566-2.3438 0.80566-1.9775 0-3.3691-0.43945-2.0508-0.73242-4.1748-0.73242-3.9551 0-9.9609 5.4932 11.938 5.8594 15.601 16.846 1.1719 3.6621 1.1719 9.0088 0 5.2734-3.0762 10.547-3.0762 5.2734-8.2031 9.082-10.693 7.9102-25.122 7.9102-7.6172 0.14648-15.088-2.1973zm15.381-3.1494q11.865-0.14648 20.435-5.7861 9.8877-6.4453 9.8877-17.432t-9.7412-17.725q-8.9355-6.1523-20.581-6.3721zm71.484-64.014q-7.5439 0-11.792-3.3691-4.248-3.3691-4.248-8.8623 0-4.6143 4.6875-7.9102 4.9805-3.5156 10.547-3.5156t8.5693 1.0986q3.0762 1.0986 5.2002 2.8564 4.248 3.5889 4.248 8.3496 0 4.7607-4.834 8.0566-4.834 3.2959-12.378 3.2959zm-15.381 12.817h31.494v78.223h-31.494zm49.731 68.408q0-1.0986 0.73242-1.9775 0.80567-0.95215 2.0508-0.95215 1.2451 0 2.0508 0.73242 0 0 1.8311 1.6846 7.6172 6.665 21.313 6.665 9.2285 0 11.865-3.8086 0.73242-1.0254 0.73242-2.0508 0-1.0986-0.43945-2.0508-0.36621-1.0254-1.6846-2.417-1.3184-1.4648-3.7354-3.4424l-6.4453-5.2002q-15.967-12.451-21.899-20.215-5.4199-7.1045-5.4199-14.502 0-9.3018 8.5693-15.601 8.8623-6.5918 22.925-6.5918 9.8877 0 15.601 2.2705 5.7129 2.2705 8.0566 4.1748 2.3438 1.8311 2.3438 3.3691 0 3.1494-2.4902 3.1494-1.1719 0-2.1973-0.80566-0.95215-0.87891-3.8818-2.8564-2.9297-2.0508-7.7637-3.2227-4.834-1.1719-9.0088-1.1719-4.1748 0-5.9326 1.3184-1.6846 1.3184-1.6846 2.6367 0 1.2451 0.5127 2.417 0.51269 1.0986 1.9043 2.6367 3.2227 3.8086 10.327 9.0088t12.012 9.5215 7.6904 7.9834q5.0537 6.5918 5.0537 13.33t-2.4902 11.572q-2.4902 4.7607-7.1045 8.2031-9.7412 7.3975-26.001 7.3975-13.037 0-21.753-4.9805-5.6396-3.1494-5.6396-6.2256zm110.74 11.206q-28.711 0-28.711-26.221l-0.0732-48.047-8.4228 0.36621q-3.9551 0-3.9551-3.0029 0-3.0029 4.248-3.0029l7.0312 0.29297h1.0986v-11.353l31.421-14.063v25.415h9.8144l6.958-0.29297q4.3213 0 4.3213 3.0762 0 1.3916-1.2451 2.1973-1.1719 0.73242-2.71 0.73242l-9.082-0.36621h-8.0566v68.848q8.5693-0.14648 14.282-4.9072 2.71-2.0508 3.8086-5.2734 1.1719-3.2227 2.0508-4.1016 0.95215-0.95215 2.1973-0.95215 1.2451 0 2.124 1.0254 0.8789 0.95215 0.8789 2.3438 0 1.3184-0.73242 3.0029-0.73242 1.6113-2.1973 3.4424-3.2959 4.1016-7.6172 6.5186-7.8369 4.3213-17.432 4.3213zm108.4-19.189q2.8564 0 2.8564 2.6367 0 1.9775-2.5635 4.6875-11.572 11.865-31.714 11.865-18.091 0-30.469-10.913-12.817-11.353-12.817-28.711 0-17.725 11.572-29.15 12.231-12.158 32.52-12.158 16.26 0 27.319 9.8877 11.938 10.62 11.938 27.905 0 2.4902-0.14648 5.2734h-48.34v31.421q4.9805 1.0254 11.206 1.0254 13.184 0 22.485-8.7158 1.9043-1.9043 2.71-3.0029 1.6846-2.0508 3.4424-2.0508zm-19.556-55.005q-4.7607-1.3916-10.767-1.3916t-9.5215 0.80566v31.567h20.288zm46.802-5.4199h31.494v22.998q5.0537-12.524 10.84-18.384 5.8594-5.9326 11.719-5.9326 3.2959 0 5.2002 1.7578 1.9775 1.6846 1.9775 3.8086 0 2.124-0.5859 3.3691-0.586 1.2451-1.5381 2.124-1.9775 1.8311-3.7354 1.8311-2.7832 0-4.1015-0.58594-2.2705-1.0254-4.0283-1.0254-1.7579 0-4.4678 2.8564-2.71 2.7832-5.2002 7.7637-6.0791 12.158-6.0791 26.367v31.274h-31.494zm64.966 68.408q0-1.0986 0.7324-1.9775 0.8057-0.95215 2.0508-0.95215t2.0508 0.73242q0 0 1.831 1.6846 7.6172 6.665 21.314 6.665 9.2285 0 11.865-3.8086 0.7324-1.0254 0.7324-2.0508 0-1.0986-0.4394-2.0508-0.3662-1.0254-1.6846-2.417-1.3183-1.4648-3.7353-3.4424l-6.4453-5.2002q-15.967-12.451-21.9-20.215-5.4199-7.1045-5.4199-14.502 0-9.3018 8.5694-15.601 8.8623-6.5918 22.925-6.5918 9.8877 0 15.6 2.2705 5.7129 2.2705 8.0567 4.1748 2.3437 1.8311 2.3437 3.3691 0 3.1494-2.4902 3.1494-1.1719 0-2.1973-0.80566-0.9521-0.87891-3.8818-2.8564-2.9297-2.0508-7.7637-3.2227t-9.0088-1.1719-5.9326 1.3184q-1.6846 1.3184-1.6846 2.6367 0 1.2451 0.5127 2.417 0.5127 1.0986 1.9043 2.6367 3.2227 3.8086 10.327 9.0088t12.012 9.5215 7.6904 7.9834q5.0537 6.5918 5.0537 13.33t-2.4902 11.572q-2.4902 4.7607-7.1045 8.2031-9.7412 7.3975-26.001 7.3975-13.037 0-21.753-4.9805-5.6396-3.1494-5.6396-6.2256z" fill="#115312"/>
  </g>
  <path transform="matrix(1.3333 0 0 -1.3333 540.21 35.174)" d="m0 0c-0.419 0.013-0.839 0.021-1.262 0.021-0.531 0-1.059-0.011-1.587-0.031v-6.402h2.849v3.407c20.584-0.667 37.066-17.56 37.066-38.306 0-21.167-17.16-38.327-38.328-38.327s-38.327 17.16-38.327 38.327c0 7.895 2.388 15.232 6.479 21.329l-2.541 1.602c-4.384-6.561-6.942-14.447-6.942-22.931 0-22.826 18.505-41.331 41.331-41.331 9.065 0 17.449 2.918 24.261 7.866 10.345 7.512 17.071 19.703 17.071 33.465 0 22.405-17.827 40.644-40.07 41.311" clip-path="url(#clipPath4)" fill="none" stroke="#4ba2d9" stroke-miterlimit="10" stroke-width="2"/>
  <path transform="matrix(1.3333 0 0 -1.3333 540.22 47.957)" d="m0 0-2.853-0.012v-30.523l2.853 0.013z" clip-path="url(#clipPath6)" fill="none" stroke="#4ba2d9" stroke-miterlimit="10" stroke-width="2"/>
 </g>
</svg>
